#tb 0: 1/25
#media_type 0: video
#codec_id 0: rawvideo
#dimensions 0: 8440x1056
#sar 0: 0/1
0,          0,          0,        1, 13368960, 0xe1e32c3d
0,          1,          1,        1, 13368960, 0x75a503d3
0,          2,          2,        1, 13368960, 0x71f33a0a
0,          3,          3,        1, 13368960, 0xd9fe5306
0,          4,          4,        1, 13368960, 0x2528926a
0,          5,          5,        1, 13368960, 0x4ae4e500
0,          6,          6,        1, 13368960, 0x01949c16
0,          7,          7,        1, 13368960, 0x57b6ea2f
0,          8,          8,        1, 13368960, 0xfd2b2055
0,          9,          9,        1, 13368960, 0xc4246a9b
